<mxfile host="app.diagrams.net" modified="2023-12-01T15:42:56.105Z" agent="Mozilla/5.0 (Windows NT 10.0; Win64; x64) AppleWebKit/537.36 (KHTML, like Gecko) Chrome/119.0.0.0 Safari/537.36" version="22.1.5" etag="OjuEH4742Gxpmts5FgUm" type="github">
  <diagram name="Σελίδα-1" id="LRhwLYZ0XrOosCkNov4p">
    <mxGraphModel>
      <root>
        <mxCell id="0" />
        <mxCell id="1" parent="0" />
      </root>
    </mxGraphModel>
  </diagram>
</mxfile>
